<svg width="72" height="72" viewBox="0 0 72 72" fill="none" xmlns="http://www.w3.org/2000/svg">
<rect x="0.5" y="0.5" width="71" height="71" rx="9.5" stroke="#9F86C9" stroke-dasharray="6 6"/>
<path fill-rule="evenodd" clip-rule="evenodd" d="M29 28C28.7348 28 28.4804 28.1054 28.2929 28.2929C28.1054 28.4804 28 28.7348 28 29V43C28 43.2652 28.1054 43.5196 28.2929 43.7071C28.4804 43.8946 28.7348 44 29 44H43C43.2652 44 43.5196 43.8946 43.7071 43.7071C43.8946 43.5196 44 43.2652 44 43V35C44 34.4477 44.4477 34 45 34C45.5523 34 46 34.4477 46 35V43C46 43.7957 45.6839 44.5587 45.1213 45.1213C44.5587 45.6839 43.7957 46 43 46H29C28.2043 46 27.4413 45.6839 26.8787 45.1213C26.3161 44.5587 26 43.7957 26 43V29C26 28.2044 26.3161 27.4413 26.8787 26.8787C27.4413 26.3161 28.2044 26 29 26H37C37.5523 26 38 26.4477 38 27C38 27.5523 37.5523 28 37 28H29Z" fill="#9F86C9"/>
<path fill-rule="evenodd" clip-rule="evenodd" d="M30.7322 30.7322C31.2011 30.2634 31.837 30 32.5 30C33.163 30 33.7989 30.2634 34.2678 30.7322C34.7366 31.2011 35 31.837 35 32.5C35 33.163 34.7366 33.7989 34.2678 34.2678C33.7989 34.7366 33.163 35 32.5 35C31.837 35 31.2011 34.7366 30.7322 34.2678C30.2634 33.7989 30 33.163 30 32.5C30 31.837 30.2634 31.2011 30.7322 30.7322ZM32.5 32C32.3674 32 32.2402 32.0527 32.1464 32.1464C32.0527 32.2402 32 32.3674 32 32.5C32 32.6326 32.0527 32.7598 32.1464 32.8536C32.2402 32.9473 32.3674 33 32.5 33C32.6326 33 32.7598 32.9473 32.8536 32.8536C32.9473 32.7598 33 32.6326 33 32.5C33 32.3674 32.9473 32.2402 32.8536 32.1464C32.7598 32.0527 32.6326 32 32.5 32Z" fill="#9F86C9"/>
<path fill-rule="evenodd" clip-rule="evenodd" d="M39.2929 33.2929C39.6834 32.9024 40.3166 32.9024 40.7071 33.2929L45.7071 38.2929C46.0976 38.6834 46.0976 39.3166 45.7071 39.7071C45.3166 40.0976 44.6834 40.0976 44.2929 39.7071L40 35.4142L29.7071 45.7071C29.3166 46.0976 28.6834 46.0976 28.2929 45.7071C27.9024 45.3166 27.9024 44.6834 28.2929 44.2929L39.2929 33.2929Z" fill="#9F86C9"/>
<path fill-rule="evenodd" clip-rule="evenodd" d="M43 25C43.5523 25 44 25.4477 44 26V32C44 32.5523 43.5523 33 43 33C42.4477 33 42 32.5523 42 32V26C42 25.4477 42.4477 25 43 25Z" fill="#9F86C9"/>
<path fill-rule="evenodd" clip-rule="evenodd" d="M39 29C39 28.4477 39.4477 28 40 28H46C46.5523 28 47 28.4477 47 29C47 29.5523 46.5523 30 46 30H40C39.4477 30 39 29.5523 39 29Z" fill="#9F86C9"/>
</svg>
