<svg width="25" height="24" viewBox="0 0 25 24" fill="none" xmlns="http://www.w3.org/2000/svg">
<path d="M12.2031 5.616C12.2331 4.711 12.4811 3.379 13.3481 2.504C14.1531 1.691 15.1331 1.295 15.7431 1.114C15.7968 1.09718 15.8538 1.09368 15.9092 1.1038C15.9645 1.11393 16.0166 1.13738 16.0609 1.17212C16.1052 1.20687 16.1404 1.25187 16.1634 1.30324C16.1864 1.35461 16.1966 1.41082 16.1931 1.467C16.1531 2.333 15.9251 3.625 15.3371 4.317C14.7831 4.969 13.8931 5.833 12.5881 5.979C12.5381 5.98441 12.4875 5.97891 12.4398 5.96289C12.3921 5.94688 12.3485 5.92072 12.3119 5.88622C12.2753 5.85172 12.2466 5.8097 12.2278 5.76305C12.2091 5.7164 12.2006 5.66623 12.2031 5.616Z" fill="color"/>
<path d="M14.437 22.17C15.064 22.41 15.697 22.652 16.27 22.652C17.497 22.652 21.0679 19.822 21.1959 16.884C21.1969 16.81 21.1774 16.7371 21.1394 16.6736C21.1014 16.61 21.0466 16.5582 20.981 16.524C20.073 16.016 18.589 14.75 18.538 12.909C18.478 10.763 19.555 9.05901 20.37 8.35401C20.554 8.19501 20.6169 7.91501 20.4529 7.73701C19.7109 6.92701 18.219 5.81201 16.857 5.83901C15.867 5.85901 14.974 6.22901 14.207 6.54501C13.62 6.78801 13.107 7.00001 12.681 7.00001C12.278 7.00001 11.794 6.79001 11.238 6.54701C10.49 6.22101 9.61195 5.83901 8.62795 5.83901C6.80395 5.83901 3.19995 7.35201 3.19995 13.191C3.19995 16.286 6.39495 22.734 9.09195 22.652C9.67395 22.652 10.296 22.412 10.914 22.172C11.522 21.936 12.125 21.702 12.681 21.702C13.218 21.702 13.824 21.935 14.437 22.17Z" fill="color"/>
</svg>
