<svg width="14" height="15" viewBox="0 0 14 15" fill="none" xmlns="http://www.w3.org/2000/svg">
<path fill-rule="evenodd" clip-rule="evenodd" d="M9.13679 2.70125C8.10268 2.24048 6.94733 2.12633 5.84304 2.37583C4.73875 2.62533 3.7447 3.22511 3.00914 4.08571C2.27358 4.94632 1.83591 6.02165 1.76142 7.15132C1.68693 8.28098 1.97961 9.40447 2.5958 10.3542C3.21199 11.304 4.11867 12.0291 5.18064 12.4214C6.2426 12.8137 7.40294 12.8523 8.4886 12.5313C9.57427 12.2103 10.5271 11.547 11.2049 10.6402C11.8828 9.73345 12.2494 8.63187 12.25 7.49975V6.96342C12.25 6.64125 12.5112 6.38008 12.8334 6.38008C13.1555 6.38008 13.4167 6.64125 13.4167 6.96342V7.50008C13.4159 8.88379 12.9679 10.2305 12.1394 11.3388C11.3109 12.447 10.1463 13.2578 8.8194 13.6501C7.49248 14.0424 6.07428 13.9953 4.77633 13.5158C3.47837 13.0362 2.37019 12.15 1.61707 10.9892C0.863953 9.82841 0.50624 8.45526 0.597283 7.07455C0.688327 5.69385 1.22325 4.37956 2.12227 3.32771C3.02129 2.27585 4.23624 1.54279 5.58593 1.23784C6.93561 0.932901 8.34771 1.07242 9.61163 1.63558C9.9059 1.76671 10.0382 2.11156 9.90704 2.40583C9.77592 2.70011 9.43107 2.83237 9.13679 2.70125Z" fill="color"/>
<path fill-rule="evenodd" clip-rule="evenodd" d="M13.2456 2.42081C13.4736 2.6485 13.4738 3.01785 13.2461 3.24577L7.41273 9.08494C7.30335 9.19442 7.15495 9.25596 7.00019 9.256C6.84543 9.25603 6.69699 9.19457 6.58756 9.08514L4.83756 7.33514C4.60976 7.10734 4.60976 6.73799 4.83756 6.51018C5.06537 6.28238 5.43471 6.28238 5.66252 6.51018L6.99983 7.8475L12.4207 2.42122C12.6484 2.1933 13.0177 2.19312 13.2456 2.42081Z" fill="color"/>
</svg>
