<svg width="21" height="21" viewBox="0 0 21 21" fill="none" xmlns="http://www.w3.org/2000/svg">
<path d="M9.275 14.175L15.4438 8.00625L14.2188 6.78125L9.275 11.725L6.78125 9.23125L5.55625 10.4562L9.275 14.175ZM4.375 18.375C3.89375 18.375 3.48177 18.2036 3.13906 17.8609C2.79635 17.5182 2.625 17.1062 2.625 16.625V4.375C2.625 3.89375 2.79635 3.48177 3.13906 3.13906C3.48177 2.79635 3.89375 2.625 4.375 2.625H16.625C17.1062 2.625 17.5182 2.79635 17.8609 3.13906C18.2036 3.48177 18.375 3.89375 18.375 4.375V16.625C18.375 17.1062 18.2036 17.5182 17.8609 17.8609C17.5182 18.2036 17.1062 18.375 16.625 18.375H4.375ZM4.375 16.625H16.625V4.375H4.375V16.625Z" fill="color"/>
</svg>
