<svg width="21" height="20" viewBox="0 0 21 20">
<g clip-path="url(#clip0_332_2305)">
<path fill-rule="evenodd" clip-rule="evenodd" d="M1.97039 12.887C2.75179 12.1056 3.8116 11.6666 4.91667 11.6666H11.5833C12.6884 11.6666 13.7482 12.1056 14.5296 12.887C15.311 13.6684 15.75 14.7282 15.75 15.8333V17.5C15.75 17.9602 15.3769 18.3333 14.9167 18.3333C14.4564 18.3333 14.0833 17.9602 14.0833 17.5V15.8333C14.0833 15.1703 13.8199 14.5344 13.3511 14.0655C12.8823 13.5967 12.2464 13.3333 11.5833 13.3333H4.91667C4.25363 13.3333 3.61774 13.5967 3.1489 14.0655C2.68006 14.5344 2.41667 15.1703 2.41667 15.8333V17.5C2.41667 17.9602 2.04357 18.3333 1.58333 18.3333C1.1231 18.3333 0.75 17.9602 0.75 17.5V15.8333C0.75 14.7282 1.18899 13.6684 1.97039 12.887Z" fill="color"/>
<path fill-rule="evenodd" clip-rule="evenodd" d="M8.25 3.33329C6.86929 3.33329 5.75 4.45258 5.75 5.83329C5.75 7.214 6.86929 8.33329 8.25 8.33329C9.63071 8.33329 10.75 7.214 10.75 5.83329C10.75 4.45258 9.63071 3.33329 8.25 3.33329ZM4.08333 5.83329C4.08333 3.53211 5.94881 1.66663 8.25 1.66663C10.5512 1.66663 12.4167 3.53211 12.4167 5.83329C12.4167 8.13448 10.5512 9.99996 8.25 9.99996C5.94881 9.99996 4.08333 8.13448 4.08333 5.83329Z" fill="color"/>
<path fill-rule="evenodd" clip-rule="evenodd" d="M16.6098 12.4C16.7249 11.9543 17.1794 11.6864 17.625 11.8014C18.5189 12.0322 19.3108 12.5534 19.8764 13.283C20.442 14.0126 20.7493 14.9095 20.75 15.8327V17.5C20.75 17.9602 20.3769 18.3333 19.9167 18.3333C19.4564 18.3333 19.0833 17.9602 19.0833 17.5V15.8339C19.0833 15.8338 19.0833 15.834 19.0833 15.8339C19.0829 15.2801 18.8985 14.7418 18.5592 14.3041C18.2198 13.8663 17.7447 13.5536 17.2083 13.4152C16.7627 13.3001 16.4947 12.8456 16.6098 12.4Z" fill="color"/>
<path fill-rule="evenodd" clip-rule="evenodd" d="M13.276 2.40159C13.3902 1.95574 13.8442 1.68684 14.29 1.801C15.1863 2.03048 15.9807 2.55173 16.548 3.28257C17.1153 4.01342 17.4232 4.91228 17.4232 5.83746C17.4232 6.76264 17.1153 7.6615 16.548 8.39234C15.9807 9.12319 15.1863 9.64444 14.29 9.87392C13.8442 9.98807 13.3902 9.71918 13.276 9.27332C13.1619 8.82747 13.4308 8.37349 13.8766 8.25933C14.4144 8.12165 14.891 7.8089 15.2314 7.37039C15.5718 6.93188 15.7565 6.39257 15.7565 5.83746C15.7565 5.28235 15.5718 4.74303 15.2314 4.30453C14.891 3.86602 14.4144 3.55327 13.8766 3.41558C13.4308 3.30143 13.1619 2.84745 13.276 2.40159Z" fill="color"/>
</g>
<defs>
<clipPath id="clip0_332_2305">
<rect width="20" height="20" fill="white" transform="translate(0.75)"/>
</clipPath>
</defs>
</svg>
