<svg width="20" height="20" viewBox="0 0 20 20" fill="none" xmlns="http://www.w3.org/2000/svg">
<path fill-rule="evenodd" clip-rule="evenodd" d="M9.48834 1.00855C9.78927 0.774495 10.2107 0.774495 10.5116 1.00855L18.0116 6.84188C18.2146 6.99976 18.3333 7.24252 18.3333 7.49967V16.6663C18.3333 17.3294 18.0699 17.9653 17.6011 18.4341C17.1322 18.9029 16.4963 19.1663 15.8333 19.1663H4.16663C3.50358 19.1663 2.8677 18.9029 2.39886 18.4341C1.93002 17.9653 1.66663 17.3294 1.66663 16.6663V7.49967C1.66663 7.24252 1.78535 6.99976 1.98834 6.84188L9.48834 1.00855ZM3.33329 7.90724V16.6663C3.33329 16.8874 3.42109 17.0993 3.57737 17.2556C3.73365 17.4119 3.94561 17.4997 4.16663 17.4997H15.8333C16.0543 17.4997 16.2663 17.4119 16.4225 17.2556C16.5788 17.0993 16.6666 16.8874 16.6666 16.6663V7.90724L9.99996 2.72206L3.33329 7.90724Z" fill="color"/>
<path fill-rule="evenodd" clip-rule="evenodd" d="M6.66663 9.99967C6.66663 9.53944 7.03972 9.16634 7.49996 9.16634H12.5C12.9602 9.16634 13.3333 9.53944 13.3333 9.99967V18.333C13.3333 18.7932 12.9602 19.1663 12.5 19.1663C12.0397 19.1663 11.6666 18.7932 11.6666 18.333V10.833H8.33329V18.333C8.33329 18.7932 7.9602 19.1663 7.49996 19.1663C7.03972 19.1663 6.66663 18.7932 6.66663 18.333V9.99967Z" fill="color"/>
</svg>
