<svg width="20" height="20" viewBox="0 0 20 20">
<path d="M9.99996 18.3334C9.80551 18.3334 9.63885 18.2778 9.49996 18.1667C9.36107 18.0556 9.2569 17.9097 9.18746 17.7292C8.92357 16.9514 8.59024 16.2222 8.18746 15.5417C7.79857 14.8611 7.24996 14.0625 6.54163 13.1459C5.83329 12.2292 5.2569 11.3542 4.81246 10.5209C4.3819 9.68752 4.16663 8.68058 4.16663 7.50002C4.16663 5.87502 4.72913 4.50002 5.85413 3.37502C6.99301 2.23613 8.37496 1.66669 9.99996 1.66669C11.625 1.66669 13 2.23613 14.125 3.37502C15.2638 4.50002 15.8333 5.87502 15.8333 7.50002C15.8333 8.76391 15.5902 9.81946 15.1041 10.6667C14.6319 11.5 14.0833 12.3264 13.4583 13.1459C12.7083 14.1459 12.1388 14.9792 11.75 15.6459C11.375 16.2986 11.0625 16.9931 10.8125 17.7292C10.743 17.9236 10.6319 18.0764 10.4791 18.1875C10.3402 18.2847 10.1805 18.3334 9.99996 18.3334ZM9.99996 9.58335C10.5833 9.58335 11.0763 9.38196 11.4791 8.97919C11.8819 8.57641 12.0833 8.08335 12.0833 7.50002C12.0833 6.91669 11.8819 6.42363 11.4791 6.02085C11.0763 5.61808 10.5833 5.41669 9.99996 5.41669C9.41663 5.41669 8.92357 5.61808 8.52079 6.02085C8.11801 6.42363 7.91663 6.91669 7.91663 7.50002C7.91663 8.08335 8.11801 8.57641 8.52079 8.97919C8.92357 9.38196 9.41663 9.58335 9.99996 9.58335Z" fill="color"/>
</svg>
