<svg width="21" height="20" viewBox="0 0 21 20" fill="none" xmlns="http://www.w3.org/2000/svg">
<path d="M3.00004 18.3333C2.78338 18.3333 2.56671 18.25 2.40838 18.0916C2.18338 17.8666 2.10838 17.5416 2.20838 17.2416L3.68338 12.8083C3.23338 11.7916 3.00004 10.6916 3.00004 9.58329C3.00004 8.11663 3.40838 6.67496 4.18338 5.42496C4.95838 4.17496 6.05838 3.16663 7.37504 2.50829C8.46671 1.95829 9.68338 1.66663 10.9 1.66663C10.9084 1.66663 10.9167 1.66663 10.9167 1.66663H11.3334C13.325 1.77496 15.15 2.59163 16.5334 3.96663C17.9084 5.34163 18.725 7.17496 18.8334 9.11663V9.57496C18.8334 10.8 18.55 12.025 17.9917 13.1166C17.3334 14.4333 16.325 15.5333 15.075 16.3083C13.825 17.0916 12.3917 17.5 10.9167 17.5C9.81671 17.5416 8.70838 17.2666 7.69171 16.8166L3.25838 18.2916C3.17504 18.3166 3.09171 18.3333 3.00004 18.3333ZM10.9 3.33329C9.94171 3.33329 8.98338 3.55829 8.12504 3.99163C7.08338 4.51663 6.21671 5.30829 5.60004 6.29996C4.99171 7.28329 4.66671 8.42496 4.66671 9.58329C4.66671 10.55 4.89171 11.5166 5.32504 12.375C5.42504 12.575 5.44171 12.8 5.37504 13.0166L4.31671 16.1833L7.48338 15.125C7.69171 15.0583 7.92504 15.075 8.12504 15.175C8.98338 15.6083 9.94171 15.8333 10.9 15.8333C10.9084 15.8333 10.9084 15.8333 10.9167 15.8333C12.0834 15.8333 13.2167 15.5083 14.2084 14.9C15.1917 14.2916 15.9917 13.4166 16.5084 12.375C16.9417 11.5166 17.1667 10.55 17.1667 9.58329V9.16663C17.0834 7.67496 16.4417 6.23329 15.35 5.14996C14.2667 4.06663 12.8167 3.41663 11.2834 3.33329H10.9167C10.9084 3.33329 10.9084 3.33329 10.9 3.33329Z" fill="color"/>
</svg>
