<svg width="20" height="21" viewBox="0 0 20 21" fill="none" xmlns="http://www.w3.org/2000/svg">
<path fill-rule="evenodd" clip-rule="evenodd" d="M8.33337 10.5C8.33337 9.57952 9.07957 8.83333 10 8.83333C10.9205 8.83333 11.6667 9.57952 11.6667 10.5C11.6667 11.4205 10.9205 12.1667 10 12.1667C9.07957 12.1667 8.33337 11.4205 8.33337 10.5Z" fill="color"/>
<path fill-rule="evenodd" clip-rule="evenodd" d="M8.33337 4.66667C8.33337 3.74619 9.07957 3 10 3C10.9205 3 11.6667 3.74619 11.6667 4.66667C11.6667 5.58714 10.9205 6.33333 10 6.33333C9.07957 6.33333 8.33337 5.58714 8.33337 4.66667Z" fill="color"/>
<path fill-rule="evenodd" clip-rule="evenodd" d="M8.33337 16.3333C8.33337 15.4129 9.07957 14.6667 10 14.6667C10.9205 14.6667 11.6667 15.4129 11.6667 16.3333C11.6667 17.2538 10.9205 18 10 18C9.07957 18 8.33337 17.2538 8.33337 16.3333Z" fill="color"/>
</svg>
