<svg width="16" height="16" viewBox="0 0 16 16" fill="none" xmlns="http://www.w3.org/2000/svg">
<g clip-path="url(#clip0_151_3925)">
<path fill-rule="evenodd" clip-rule="evenodd" d="M15.138 0.862254C15.3984 1.1226 15.3984 1.54471 15.138 1.80506L7.8047 9.1384C7.54435 9.39875 7.12224 9.39875 6.86189 9.1384C6.60154 8.87805 6.60154 8.45594 6.86189 8.19559L14.1952 0.862254C14.4556 0.601905 14.8777 0.601905 15.138 0.862254Z" fill="white"/>
<path fill-rule="evenodd" clip-rule="evenodd" d="M15.138 0.862273C15.3191 1.04336 15.3805 1.31219 15.2959 1.55391L10.6292 14.8872C10.5389 15.1452 10.3003 15.322 10.0271 15.3331C9.75402 15.3443 9.50177 15.1876 9.39075 14.9378L6.82823 9.17208L1.06254 6.60955C0.81275 6.49853 0.656041 6.24629 0.667183 5.97317C0.678326 5.70005 0.855062 5.46141 1.11306 5.37111L14.4464 0.704439C14.6881 0.619835 14.9569 0.681181 15.138 0.862273ZM3.14068 6.07408L7.60405 8.0578C7.75488 8.12483 7.87547 8.24543 7.9425 8.39625L9.92623 12.8596L13.58 2.42032L3.14068 6.07408Z" fill="white"/>
</g>
<defs>
<clipPath id="clip0_151_3925">
<rect width="16" height="16" fill="white"/>
</clipPath>
</defs>
</svg>
