<svg width="20" height="20" viewBox="0 0 20 20" fill="none" xmlns="http://www.w3.org/2000/svg">
<g clip-path="url(#clip0_157_3444)">
<path fill-rule="evenodd" clip-rule="evenodd" d="M9.99992 0.833252C4.93731 0.833252 0.833252 4.93731 0.833252 9.99992C0.833252 15.0625 4.93731 19.1666 9.99992 19.1666C15.0625 19.1666 19.1666 15.0625 19.1666 9.99992C19.1666 4.93731 15.0625 0.833252 9.99992 0.833252ZM13.0892 8.08917C13.4146 7.76374 13.4146 7.2361 13.0892 6.91066C12.7637 6.58523 12.2361 6.58523 11.9107 6.91066L9.99992 8.82141L8.08917 6.91066C7.76374 6.58523 7.2361 6.58523 6.91066 6.91066C6.58523 7.2361 6.58523 7.76374 6.91066 8.08917L8.82141 9.99992L6.91066 11.9107C6.58523 12.2361 6.58523 12.7637 6.91066 13.0892C7.2361 13.4146 7.76374 13.4146 8.08917 13.0892L9.99992 11.1784L11.9107 13.0892C12.2361 13.4146 12.7637 13.4146 13.0892 13.0892C13.4146 12.7637 13.4146 12.2361 13.0892 11.9107L11.1784 9.99992L13.0892 8.08917Z" fill="black" fill-opacity="0.75"/>
<path d="M13.0892 6.91066C13.4146 7.2361 13.4146 7.76374 13.0892 8.08917L11.1784 9.99992L13.0892 11.9107C13.4146 12.2361 13.4146 12.7637 13.0892 13.0892C12.7637 13.4146 12.2361 13.4146 11.9107 13.0892L9.99992 11.1784L8.08917 13.0892C7.76374 13.4146 7.2361 13.4146 6.91066 13.0892C6.58523 12.7637 6.58523 12.2361 6.91066 11.9107L8.82141 9.99992L6.91066 8.08917C6.58523 7.76374 6.58523 7.2361 6.91066 6.91066C7.2361 6.58523 7.76374 6.58523 8.08917 6.91066L9.99992 8.82141L11.9107 6.91066C12.2361 6.58523 12.7637 6.58523 13.0892 6.91066Z" fill="white"/>
</g>
<defs>
<clipPath id="clip0_157_3444">
<rect width="20" height="20" fill="white"/>
</clipPath>
</defs>
</svg>
