<svg xmlns:xlink="http://www.w3.org/1999/xlink" class="MuiSvgIcon-root MuiSvgIcon-fontSizeMedium css-14d5f8" focusable="false" aria-hidden="true" viewBox="0 0 16 16" xmlns="http://www.w3.org/2000/svg" width="16" height="16" fill="none"><g clip-path="url(#clip0_4057_327682)" fill="none"><path d="M8 0C10.2089 0 12.209 0.895603 13.6567 2.34327C15.1044 3.79085 16 5.79103 16 8.00008C16 10.209 15.1044 12.2092 13.6567 13.6569C12.209 15.1044 10.2089 16 8 16C5.79109 16 3.79097 15.1044 2.34328 13.6569C0.895594 12.2092 0 10.209 0 8.00008C0 5.79103 0.895594 3.79085 2.34328 2.34327C3.79084 0.895603 5.79097 0 8 0Z" fill="#ECCA43"></path><path d="M8.00024 15.8433C12.3321 15.8433 15.8437 12.3317 15.8437 7.9998C15.8437 3.66793 12.3321 0.15625 8.00024 0.15625C3.66839 0.15625 0.156738 3.66793 0.156738 7.9998C0.156738 12.3317 3.66839 15.8433 8.00024 15.8433Z" fill="#F7E259"></path><path fill-rule="evenodd" clip-rule="evenodd" d="M15.7421 6.74006C15.8094 7.15656 15.8432 7.57779 15.8432 7.9997C15.8432 12.3314 12.3316 15.8431 7.99978 15.8431C3.66797 15.8431 0.15625 12.3314 0.15625 7.9997C0.15625 7.31663 0.243781 6.65419 0.407844 6.02246L8.10894 11.7561L15.7421 6.74006Z" fill="#F8D548"></path><path d="M7.99987 1.8418C9.70031 1.8418 11.2401 2.53121 12.3547 3.64572C13.4692 4.76014 14.1586 6.29997 14.1586 8.00042C14.1586 9.70087 13.4692 11.2407 12.3547 12.3552C11.2401 13.4697 9.70031 14.1592 7.99987 14.1592C6.29943 14.1592 4.75962 13.4697 3.64521 12.3552C2.53071 11.2407 1.84131 9.70087 1.84131 8.00042C1.84131 6.29997 2.53071 4.76014 3.64521 3.64572C4.75962 2.53121 6.29943 1.8418 7.99987 1.8418Z" fill="#D7925B"></path><path d="M8.0002 14.0025C11.3151 14.0025 14.0024 11.3152 14.0024 8.00026C14.0024 4.68533 11.3151 1.99805 8.0002 1.99805C4.6853 1.99805 1.99805 4.68533 1.99805 8.00026C1.99805 11.3152 4.6853 14.0025 8.0002 14.0025Z" fill="#EDA140"></path></g><defs><clipPath id="clip0_4057_327682"><rect width="16" height="16" fill="white"></rect></clipPath></defs></svg>